<?xml version="1.0" encoding="UTF-8" standalone="no"?>
<!-- Created with Inkscape (http://www.inkscape.org/) -->

<svg
   width="210mm"
   height="297mm"
   viewBox="0 0 210 297"
   version="1.1"
   id="svg1"
   xml:space="preserve"
   inkscape:version="1.3.2 (091e20ef0f, 2023-11-25)"
   sodipodi:docname="drawing.svg"
   xmlns:inkscape="http://www.inkscape.org/namespaces/inkscape"
   xmlns:sodipodi="http://sodipodi.sourceforge.net/DTD/sodipodi-0.dtd"
   xmlns:xlink="http://www.w3.org/1999/xlink"
   xmlns="http://www.w3.org/2000/svg"
   xmlns:svg="http://www.w3.org/2000/svg"><sodipodi:namedview
     id="namedview1"
     pagecolor="#505050"
     bordercolor="#ffffff"
     borderopacity="1"
     inkscape:showpageshadow="0"
     inkscape:pageopacity="0"
     inkscape:pagecheckerboard="1"
     inkscape:deskcolor="#505050"
     inkscape:document-units="mm"
     showguides="false"
     inkscape:zoom="0.5"
     inkscape:cx="331"
     inkscape:cy="683"
     inkscape:window-width="1920"
     inkscape:window-height="1011"
     inkscape:window-x="1920"
     inkscape:window-y="32"
     inkscape:window-maximized="1"
     inkscape:current-layer="layer1" /><defs
     id="defs1"><linearGradient
       id="linearGradient23"
       inkscape:collect="always"><stop
         style="stop-color:#e2072b;stop-opacity:1;"
         offset="0"
         id="stop23" /><stop
         style="stop-color:#e2072b;stop-opacity:0;"
         offset="1"
         id="stop24" /></linearGradient><linearGradient
       inkscape:collect="always"
       xlink:href="#linearGradient23"
       id="linearGradient24"
       x1="121.55438"
       y1="132.57036"
       x2="121.59129"
       y2="156.92"
       gradientUnits="userSpaceOnUse"
       gradientTransform="matrix(3.6419482,0,0,3.6419482,-338.0054,-322.78107)" /></defs><g
     inkscape:label="Layer 1"
     inkscape:groupmode="layer"
     id="layer1"><path
       id="path13"
       style="fill:url(#linearGradient24);fill-opacity:1;fill-rule:nonzero;stroke-width:0.965116;stroke-dasharray:none"
       d="m 102.85046,54.183662 c -1.95911,-0.06635 -4.148501,0.269752 -6.13919,1.515044 -5.308358,3.320805 -68.071109,41.51002 -68.071109,41.51002 0,0 -6.849545,3.907264 -7.225091,10.620284 -0.375564,6.71305 -0.36135,87.00057 -0.36135,87.00057 0,0 0.467848,7.61903 8.717557,12.00922 8.249741,4.39015 69.051631,40.33752 69.051631,40.33752 0,0 4.971732,3.001 11.188682,-0.41216 6.21692,-3.41316 11.59895,-6.84493 11.59895,-6.84493 l 0.19197,-16.49223 50.28591,-29.57044 0.35761,-84.18316 -67.00778,-40.595338 c 0,0 -3.58433,-1.387111 -6.276568,0.220196 -2.692274,1.607441 -62.099408,38.508172 -62.099408,38.508172 0,0 -1.657013,0.6003 -1.819953,3.30484 -0.162795,2.70459 -0.111043,82.51945 -0.111043,82.51945 0,0 0.108563,0.7359 0.848828,1.16874 0.740154,0.43282 40.93976,23.72675 40.93976,23.72675 l 0.270998,-6.75272 -35.553391,-21.02038 -0.24656,-34.6764 7.183706,-3.86193 0.129877,6.31987 5.373184,-2.43533 0.1054,-7.63917 46.75901,-27.95942 0.032,6.20129 c 0,0 1.10748,2.21893 2.91527,2.29797 1.80779,0.0792 2.74967,-2.1606 2.74967,-2.1606 l -0.0696,-5.40705 34.28301,20.07183 0.12989,7.64103 -16.73502,-9.31793 c 0,0 -2.55683,0.032 -3.29356,1.73899 -0.73669,1.70663 1.15181,3.85629 1.15181,3.85629 l 18.53234,10.96845 0.081,4.89893 -26.48577,15.7018 0.48179,7.01617 26.11693,-14.74382 0.14301,3.36321 c 0,0 -0.77657,1.42319 -2.32617,2.41464 -1.54962,0.99141 -30.80693,18.51351 -30.80693,18.51351 l -0.0546,-20.37298 18.32908,-10.77835 c 0,0 0.93289,-0.45834 1.01628,-2.10788 0.0503,-0.99109 0.30495,-2.54005 0.20515,-3.53823 -0.0662,-0.66316 -0.49497,-1.02757 -0.49497,-1.02757 l -5.15299,-2.76657 -0.23902,4.63919 -15.66788,9.63976 c 0,0 -1.72191,1.79206 -4.54133,0 -2.819448,-1.79205 -16.209945,-9.8054 -16.209945,-9.8054 l 0.05835,-4.6279 -4.368188,2.57086 c 0,0 -1.194742,1.09688 -1.272243,2.83245 -0.07757,1.73554 -0.08281,3.53257 -0.08281,3.53257 l 21.793886,12.9239 -0.19196,20.37673 -46.567045,-26.91116 -0.04516,-5.85123 -5.930257,3.34062 -0.0038,6.82047 37.698936,21.38736 -1.855682,-0.81113 -0.146807,14.90566 17.141525,9.8769 -0.39522,7.73513 -16.85356,-10.14978 -0.156204,15.25007 C 63.722247,218.93964 31.291972,200.07668 31.291972,200.07668 c 0,0 -3.535385,-0.0243 -3.581529,-8.56888 -0.04625,-8.54598 -0.133629,-82.08846 -0.133629,-82.08846 0,0 0.0099,-5.66167 4.691922,-7.466 4.683363,-1.80428 64.538529,-39.439811 64.538529,-39.439811 0,0 3.812395,-4.625211 10.791565,-0.293586 6.97914,4.331558 68.27059,40.188837 68.27059,40.188837 0,0 3.41479,1.70516 3.37257,6.67368 -0.0422,4.96853 0.096,84.24901 0.096,84.24901 0,0 0.10375,3.79294 -3.43472,5.80795 -3.53856,2.01502 -48.09335,28.83834 -48.09335,28.83834 l 0.35946,7.60715 c 1.18749,-0.72991 53.99917,-32.57227 53.99917,-32.57227 0,0 2.95049,-2.97962 3.01313,-6.20504 0.0626,-3.22542 0.33877,-90.81166 0.33877,-90.81166 0,0 -0.19126,-4.61595 -5.08524,-7.699398 -4.89405,-3.083465 -71.69402,-42.774762 -71.69402,-42.774762 0,0 -2.62555,-1.227584 -5.89074,-1.338118 z m -4.57898,22.533533 0.10351,7.917705 -37.825021,23.6176 0.161885,6.63039 42.108496,-25.972021 18.60763,11.854921 0.0847,-6.824251 -14.87553,-9.609648 -0.0282,-7.168634 59.38743,35.276753 -0.0264,40.04956 -0.0206,-3.74148 -6.6718,-3.50997 0.29172,-28.2361 -31.41108,-19.320892 -0.29736,7.012422 26.08679,15.34607 -0.21265,22.08937 -50.77527,-29.14885 -48.486719,28.95877 -0.09976,-37.81937 z m 4.43218,20.572454 -41.764117,25.785681 0.08847,7.01057 42.153697,-25.92496 43.28478,26.25809 0.34066,-6.8167 z M 48.514418,107.7782 48.201976,145.81213 c 0,0 -6.269942,3.1855 -6.858117,3.43282 l -0.261601,-36.82753 z m 34.038377,32.74731 c -0.591452,0.0157 -1.012534,0.0997 -1.012534,0.0997 l -20.563059,12.36303 0.01883,12.96719 33.934838,19.07623 0.263495,-6.16927 -27.654516,-17.1133 0.223944,-5.83615 16.620212,-9.56073 c 0,0 2.682113,-2.95213 1.411511,-4.63729 -0.794127,-1.05326 -2.257025,-1.21568 -3.242718,-1.18946 z m 64.721065,4.73894 6.85061,4.01062 -0.1901,4.85373 5.55386,3.16749 0.28232,-5.02317 6.1975,3.95983 -0.0225,33.29309 -43.7873,26.80007 -0.56836,0.34253 0.20515,-23.89425 23.86787,-14.26576 c 0,0 1.53447,-0.58041 1.60538,-2.94724 0.0705,-2.34953 0.007,-29.88992 0.005,-30.29694 z m 6.66429,15.56252 -0.0847,20.92062 -25.38293,15.55119 0.29737,6.57204 30.76553,-18.2105 0.33124,-21.48334 z m -105.386111,19.0047 -0.09221,7.46978 28.544717,16.38871 0.191967,-7.26464 z m 42.234618,16.64654 10.074503,5.71575 0.0998,-0.0107 0.18253,7.91766 -10.755766,-6.48546 z m 24.616953,0.11676 -0.0452,23.81896 -0.10916,0.0658 0.0207,0.55142 -7.66929,4.5658 0.0358,-24.35909 z m -25.074271,29.89038 10.981641,6.32926 -0.11294,7.9083 c -0.56985,-0.32401 -7.907429,-4.60039 -11.145377,-6.47981 z m 25.207891,1.95732 0.26346,7.24205 -7.8311,4.57334 c 0,0 -0.43784,0.26875 -1.03326,0.55893 l 0.42159,-8.01552 z" /><path
       style="fill:#ffffff;fill-opacity:1;stroke-width:0.963597"
       d="m 103.32111,135.3314 c 0,0 -0.66134,2.58797 -1.033,3.87052 -0.35982,1.24129 -0.51803,2.57733 -1.1581,3.70004 -0.67602,1.18566 -1.632431,2.245 -2.739766,3.04291 -1.159415,0.83546 -2.577261,1.2524 -3.930026,1.71307 -0.798643,0.27206 -2.45522,0.61487 -2.45522,0.61487 0,0 -0.130386,0.2655 -0.0783,0.38638 0.108537,0.25129 0.697615,0.43378 0.697615,0.43378 0,0 3.278481,0.53511 4.738138,1.27251 1.183343,0.59778 2.294355,1.43422 3.109649,2.47966 0.9461,1.21316 1.4724,2.72646 1.91158,4.2009 0.40346,1.35452 0.64182,4.19116 0.64182,4.19116 0,0 0.17518,0.28116 0.31612,0.2808 0.14896,-5.9e-4 0.33142,-0.299 0.33142,-0.299 0,0 0.88736,-4.41584 1.84774,-6.42769 0.55828,-1.16953 1.24005,-2.34832 2.22986,-3.18484 1.18105,-0.99816 2.77455,-1.36868 4.19057,-1.99004 0.82294,-0.36091 2.42521,-0.74917 2.8208,-0.90276 0.0597,-0.0219 0.1271,-0.1063 0.11217,-0.17373 -0.0146,-0.0743 -0.10635,-0.098 -0.19303,-0.12238 -0.43422,-0.12051 -1.79704,-0.50571 -2.5164,-0.78469 -1.3351,-0.51777 -2.78846,-0.90995 -3.88803,-1.82731 -1.10584,-0.92258 -1.84644,-2.23863 -2.50876,-3.51744 -0.88081,-1.7006 -1.25571,-3.61866 -1.89556,-5.42377 -0.18137,-0.51179 -0.55103,-1.53292 -0.55103,-1.53292 z"
       id="path22"
       sodipodi:nodetypes="csaaacscaaacscsasssssaaacc" /></g></svg>
